<?xml version="1.0" encoding="utf-8"?>
<!-- Svg Vector Icons : http://www.onlinewebfonts.com/icon -->
<!DOCTYPE svg PUBLIC "-//W3C//DTD SVG 1.1//EN" "http://www.w3.org/Graphics/SVG/1.1/DTD/svg11.dtd">
<svg version="1.1" xmlns="http://www.w3.org/2000/svg" xmlns:xlink="http://www.w3.org/1999/xlink" x="0px" y="0px" viewBox="0 0 256 256" enable-background="new 0 0 256 256" xml:space="preserve">
<metadata> Svg Vector Icons : http://www.onlinewebfonts.com/icon </metadata>
<g><g><g><path fill="#000000" d="M33.6,10.6c-10,2.2-19.3,10.6-22.5,20.3L10,34.5v94v94l1.2,3.2c3.5,9.1,10.6,16,19.5,19.1l3.2,1.1h93.8h93.8l3.5-1.1c7.3-2.4,14.2-8.4,17.7-15.4c3.6-7.3,3.4,0.1,3.2-102.8l-0.1-92.1l-1.3-3.5c-1.8-5-4-8.4-7.5-12c-3.6-3.6-7-5.7-12-7.5l-3.5-1.3l-92.4-0.1C51.4,10,36.3,10.1,33.6,10.6z M214,22.9c10.3,3.5,17.6,11.7,19.4,22c0.6,3.4,0.7,16.4,0.6,85.3l-0.1,81.3l-1,3.1c-2.9,8.6-8.8,14.7-17.7,18.1l-3.2,1.2l-82.4,0.1c-90.9,0.1-86,0.3-92.4-2.9c-4.4-2.1-10.4-8.1-12.4-12.4c-3.1-6.5-3-1.1-3-90.6c0-68,0.1-81.9,0.7-84.5C24.7,33.1,34,24.2,44.8,22.4c1.4-0.2,39.4-0.4,84.6-0.3C207.8,22.1,211.5,22.1,214,22.9z"/><path fill="#000000" d="M65.6,95.4c-3.4,0.7-6.8,2.6-9.4,5.3c-4.8,5.1-5.9,8.7-5.9,20.4c0,9,0.5,12,2.6,16.2c1.7,3.4,5.1,6.6,8.8,8.3c3,1.4,3.5,1.5,8.2,1.5c6.7,0,9.6-1.1,13.7-5.2c3.1-3.1,4.3-5.7,4.6-9.6l0.1-1.9l-3.2-0.1l-3.1-0.1l-0.6,2.8c-1.1,5.8-5,8.7-11.4,8.7c-5.5,0-8.8-2.2-11.5-7.9c-1.2-2.7-1.3-3.3-1.5-10.7c-0.3-10.9,0.6-14.8,4.3-18.9c2.1-2.4,4.7-3.5,8.3-3.5c6.7,0,10.8,3.4,11.9,9.6l0.3,1.8h3.3h3.3l-0.3-2.5c-0.4-3.3-2.7-8-4.9-9.9C79.2,95.9,71.9,94.2,65.6,95.4z"/><path fill="#000000" d="M107.4,108.6c-5.3,1.1-10.3,5.7-10.3,9.4c0,1.3,0,1.3,3.3,1.3c3,0,3.3-0.1,3.3-0.9c0-1.4,2.7-3.8,4.9-4.4c2.2-0.6,5-0.3,7.1,0.8c1.8,1,3.2,4,3.2,7.2v2.5l-6.5,0.2c-7.7,0.3-10.6,1.1-13.7,3.8c-2.8,2.5-3.8,5.1-3.4,9.3c0.4,5.8,4.1,9.2,10.4,9.6c4.4,0.3,7.4-0.8,10.7-3.8l2.6-2.4v1.4c0,0.8,0.1,2.1,0.3,2.9l0.3,1.5h3.5c3.5,0,3.6,0,3.2-1.1c-0.2-0.6-0.5-7.4-0.7-15.1l-0.3-14.1l-1.3-2.3c-2.3-4-6.9-6.1-12.7-6C109.8,108.3,107.9,108.4,107.4,108.6z M119.1,132.3c0,3.8-1.1,5.6-4.7,7.6c-2.1,1.2-3.1,1.5-5.7,1.5c-3.7,0-5.4-0.9-6.3-3.3c-0.7-2.1,0-4.9,1.5-6.3c2.1-1.9,4.2-2.4,9.8-2.5h5.3V132.3z"/><path fill="#000000" d="M149.1,108.7c-2,0.6-3.4,1.5-5.3,3.2l-1.8,1.7l-0.3-1.6c-0.7-3.3-0.6-3.3-3.4-3.3h-2.6V135v26.3h3.3h3.3v-9.1c0-5,0.2-9.1,0.4-9.1c0.2,0,0.8,0.4,1.3,1c2,2.2,4.4,3.1,9,3.1c3.7,0,4.6-0.2,6.7-1.3c6.1-3.2,9.1-11.3,7.9-21c-1-8.7-4.9-14.6-10.5-16.1C155.3,108.2,150.9,108.2,149.1,108.7z M155.2,114.7c6.2,3,8.1,17.4,3.1,24c-1.7,2.2-3.7,3.1-7.1,3.1c-3.1,0-5.3-0.9-7.2-2.9c-1.1-1.2-1.1-1.4-1.1-10.9c0-9.6,0-9.7,1.2-11.1c0.6-0.8,1.9-1.8,2.7-2.1C148.9,113.8,153.1,113.8,155.2,114.7z"/><path fill="#000000" d="M186.1,108.7c-5.8,1.5-9.8,5.8-9.8,10.5c0,5.4,3.5,8.4,12.8,10.8c7.6,2.1,9.2,3.1,9.2,6.6c0,4.5-7.1,6.9-12.7,4.2c-1.9-0.9-3.5-3.1-3.5-4.8c0-1-0.2-1-3.4-1h-3.4l0.2,2.1c0.5,4.1,4.3,8.1,9.1,9.5c2.8,0.9,8.8,1,11.6,0.2c8.4-2.3,12-11.5,6.6-16.8c-2.2-2.1-5.7-3.7-11.4-5.1c-2.4-0.6-5.1-1.5-5.9-2c-2.9-1.7-3.1-4.9-0.5-7.4c1.2-1.2,1.9-1.4,4.9-1.5c3-0.1,3.7,0,5.1,1c1.5,1,2.5,2.3,3.1,4.3c0.2,0.7,0.8,0.9,3.6,0.9h3.3v-1.4c0-3.2-3.2-7.3-7.3-9.1C195.1,108.5,188.7,108,186.1,108.7z"/></g></g></g>
</svg>